<?xml version="1.0" encoding="utf-8"?>
<!-- Generator: Adobe Illustrator 23.0.2, SVG Export Plug-In . SVG Version: 6.00 Build 0)  -->
<svg version="1.1" id="daylight-map" xmlns="http://www.w3.org/2000/svg" xmlns:xlink="http://www.w3.org/1999/xlink" x="0px"
	 y="0px" viewBox="0 0 1100 550" style="enable-background:new 0 0 1100 550;" xml:space="preserve">
<style type="text/css">
	.st0{display:none;fill:url(#SVGID_1_);}
	.st1{fill:url(#sun_1_);}
</style>
<linearGradient id="SVGID_1_" gradientUnits="userSpaceOnUse" x1="-817.2563" y1="1.46" x2="-816.2563" y2="1.46" gradientTransform="matrix(1100 0 0 550 898982 -528)">
	<stop  offset="0" style="stop-color:#42448A"/>
	<stop  offset="1" style="stop-color:#376281"/>
</linearGradient>
<rect class="st0" width="1100" height="550"/>
<radialGradient id="sun_1_" cx="-814.7733" cy="2.2599" r="0.5" gradientTransform="matrix(300 0 0 300 244694.7812 -433.5625)" gradientUnits="userSpaceOnUse">
	<stop  offset="0" style="stop-color:#FFFFFF;stop-opacity:0.11"/>
	<stop  offset="1" style="stop-color:#FFFFFF;stop-opacity:0"/>
</radialGradient>
<circle id="sun" class="st1" cx="262.8" cy="244.4" r="150"/>
<path id="nightPath" d="M0,388.1l5.1,16.3c5.1,16.3,15.3,48.9,25.5,69.3s20.4,28.5,30.6,34.1s20.4,8.7,30.6,11.2s20.4,4.6,30.6,6.1
	s20.4,2.5,30.6,3.6c10.2,1,20.4,2,30.6,2.5c10.2,0.5,20.4,0.5,30.6,0.5c10.2,0,20.4,0,30.6,0s20.4,0,30.6,0s20.4,0,30.6,0
	s20.4,0,30.6-0.5s20.4-1.5,30.6-2.5s20.4-2,30.6-3.1c10.2-1,20.4-2,30.6-4.1c10.2-2,20.4-5.1,30.6-10.2
	c10.2-5.1,20.4-12.2,30.6-27.5s20.4-38.7,30.6-94.2s20.4-143.1,30.6-203.2s20.4-92.7,30.6-113.1s20.4-28.5,30.6-34.1
	c10.2-5.6,20.4-8.7,30.6-11.2s20.4-4.6,30.6-6.1c10.2-1.5,20.4-2.5,30.6-3.6s20.4-2,30.6-2.5c10.2-0.5,20.4-0.5,30.6-0.5
	c10.2,0,20.4,0,30.6,0s20.4,0,30.6,0s20.4,0,30.6,0s20.4,0,30.6,0.5c10.2,0.5,20.4,1.5,30.6,2.5s20.4,2,30.6,3.1s20.4,2,30.6,4.1
	s20.4,5.1,30.6,10.2s20.4,12.2,30.6,27.5s20.4,38.7,30.6,94.2s20.4,143.1,25.5,186.9l5.1,43.8V550H0"/>
</svg>
